<?xml version="1.0" encoding="UTF-8" standalone="no"?>
<!-- Created with Inkscape (http://www.inkscape.org/) -->

<svg
   xmlns:dc="http://purl.org/dc/elements/1.1/"
   xmlns:cc="http://creativecommons.org/ns#"
   xmlns:rdf="http://www.w3.org/1999/02/22-rdf-syntax-ns#"
   xmlns:svg="http://www.w3.org/2000/svg"
   xmlns="http://www.w3.org/2000/svg"
   xmlns:sodipodi="http://sodipodi.sourceforge.net/DTD/sodipodi-0.dtd"
   xmlns:inkscape="http://www.inkscape.org/namespaces/inkscape"
   width="542.03125"
   height="385.56586"
   id="svg2"
   version="1.1"
   inkscape:version="0.48.1 r9760"
   sodipodi:docname="tooltip.svg">
  <title
     id="title3952">tooltip</title>
  <defs
     id="defs4">
    <inkscape:perspective
       sodipodi:type="inkscape:persp3d"
       inkscape:vp_x="0 : 526.18109 : 1"
       inkscape:vp_y="0 : 1000 : 0"
       inkscape:vp_z="744.09448 : 526.18109 : 1"
       inkscape:persp3d-origin="372.04724 : 350.78739 : 1"
       id="perspective10" />
    <inkscape:perspective
       id="perspective2985"
       inkscape:persp3d-origin="0.5 : 0.33333333 : 1"
       inkscape:vp_z="1 : 0.5 : 1"
       inkscape:vp_y="0 : 1000 : 0"
       inkscape:vp_x="0 : 0.5 : 1"
       sodipodi:type="inkscape:persp3d" />
  </defs>
  <sodipodi:namedview
     id="base"
     pagecolor="#ffffff"
     bordercolor="#666666"
     borderopacity="1.0"
     inkscape:pageopacity="0.0"
     inkscape:pageshadow="2"
     inkscape:zoom="0.49497475"
     inkscape:cx="179.89835"
     inkscape:cy="73.14395"
     inkscape:document-units="px"
     inkscape:current-layer="layer1"
     showgrid="false"
     showguides="true"
     inkscape:guide-bbox="true"
     inkscape:window-width="1226"
     inkscape:window-height="743"
     inkscape:window-x="0"
     inkscape:window-y="26"
     inkscape:window-maximized="1"
     fit-margin-top="0"
     fit-margin-left="0"
     fit-margin-right="0"
     fit-margin-bottom="0" />
  <metadata
     id="metadata7">
    <rdf:RDF>
      <cc:Work
         rdf:about="">
        <dc:format>image/svg+xml</dc:format>
        <dc:type
           rdf:resource="http://purl.org/dc/dcmitype/StillImage" />
        <dc:title>tooltip</dc:title>
        <cc:license
           rdf:resource="http://creativecommons.org/licenses/publicdomain/" />
        <dc:creator>
          <cc:Agent>
            <dc:title>Sergio Luiz Araujo Silva</dc:title>
          </cc:Agent>
        </dc:creator>
        <dc:subject>
          <rdf:Bag>
            <rdf:li>tooltip</rdf:li>
            <rdf:li>baloon</rdf:li>
            <rdf:li>tip</rdf:li>
            <rdf:li>dialog</rdf:li>
          </rdf:Bag>
        </dc:subject>
      </cc:Work>
      <cc:License
         rdf:about="http://creativecommons.org/licenses/publicdomain/">
        <cc:permits
           rdf:resource="http://creativecommons.org/ns#Reproduction" />
        <cc:permits
           rdf:resource="http://creativecommons.org/ns#Distribution" />
        <cc:permits
           rdf:resource="http://creativecommons.org/ns#DerivativeWorks" />
      </cc:License>
    </rdf:RDF>
  </metadata>
  <g
     inkscape:label="Camada 1"
     inkscape:groupmode="layer"
     id="layer1"
     transform="translate(-97.375,-72.59375)">
    <path
       style="color:#000000;fill:#cccccc;fill-opacity:1;stroke:none;stroke-width:3.32299995;marker:none;visibility:visible;display:inline;overflow:visible;enable-background:accumulate"
       d="m 259.1934,104.79491 c -82.04776,0 -148.50324,57.39235 -148.50324,128.20687 0,70.81452 66.45548,128.20688 148.50324,128.20688 21.22306,0 41.43323,-3.82461 59.69518,-10.74512 3.99153,-1.51263 11.46335,-4.47816 15.33707,-2.84701 l 23.23519,9.73491 0.82656,-3.3062 c 0.88788,-3.40771 -3.72534,-10.61824 -5.41849,-13.68397 -9.21952,-16.69368 -14.41868,-35.3781 -14.41868,-55.10324 0,-41.35824 22.73093,-78.12742 57.95024,-101.57365 -22.37976,-46.35241 -75.39344,-78.88947 -137.20707,-78.88947 z"
       id="path3795"
       inkscape:connector-curvature="0" />
    <g
       id="g3910"
       transform="matrix(2.93884,0,0,2.93884,-1328.79,-956.861)">
      <path
         style="color:#000000;fill:#cccccc;fill-opacity:1;stroke:none;stroke-width:3.32299995;marker:none;visibility:visible;display:inline;overflow:visible;enable-background:accumulate"
         d="m 566.24574,431.94289 c 0,6.71188 1.756,13.06978 4.89313,18.75014 0.57613,1.04318 2.16791,3.50658 1.86579,4.66612 l -6.80841,26.13035 25.06904,-10.5559 c 1.31811,-0.55503 3.86954,0.46258 5.22774,0.97728 6.214,2.35485 13.0819,3.66182 20.30348,3.66182 27.91842,0 50.55078,-19.53373 50.55078,-43.62981 0,-24.09608 -22.63236,-43.62982 -50.55078,-43.62982 -27.91841,0 -50.55077,19.53374 -50.55077,43.62982 z"
         id="path3809"
         sodipodi:nodetypes="csscsssssc"
         inkscape:connector-curvature="0" />
      <path
         sodipodi:nodetypes="csscsssssc"
         id="path3811"
         d="m 566.96002,423.37147 c 0,6.71188 1.756,13.06978 4.89313,18.75014 0.57613,1.04318 2.16791,3.50658 1.86579,4.66612 l -6.80841,26.13035 25.06904,-10.5559 c 1.31811,-0.55503 3.86954,0.46258 5.22774,0.97728 6.214,2.35485 13.0819,3.66182 20.30348,3.66182 27.91842,0 50.55078,-19.53373 50.55078,-43.62981 0,-24.09608 -22.63236,-43.62982 -50.55078,-43.62982 -27.91841,0 -50.55077,19.53374 -50.55077,43.62982 z"
         style="color:#000000;fill:#a6c2da;fill-opacity:1;stroke:#123569;stroke-width:3.32299995;stroke-linecap:round;stroke-linejoin:miter;stroke-miterlimit:4;stroke-opacity:1;stroke-dashoffset:0;marker:none;visibility:visible;display:inline;overflow:visible;enable-background:accumulate"
         inkscape:connector-curvature="0" />
      <path
         id="path3829"
         d="m 618.54457,383.51022 c -26.16199,0 -46.78125,18.10734 -46.78125,39.84375 0,6.06173 1.55952,11.78297 4.40625,16.9375 0.1861,0.33697 0.79369,1.33377 1.34375,2.46875 0.55006,1.13498 1.60085,2.18295 0.875,4.96875 l -4.875,18.75 18.03125,-7.59375 c 2.20971,-0.93047 3.71794,-0.42047 5,-0.0937 1.28206,0.32672 2.38662,0.75571 3.03125,1 5.78292,2.19149 12.19967,3.40625 18.96875,3.40625 3.91956,0 7.69365,-0.39219 11.3125,-1.15625 13.87161,-11.34634 22.59375,-27.75407 22.59375,-46 0,-8.63422 -1.94264,-16.84368 -5.46875,-24.3125 -7.83827,-5.13868 -17.65362,-8.21875 -28.4375,-8.21875 z"
         style="color:#000000;fill:#ffffff;fill-opacity:0.48854963;stroke:none;stroke-width:3.32299995;marker:none;visibility:visible;display:inline;overflow:visible;enable-background:accumulate"
         inkscape:connector-curvature="0" />
      <path
         sodipodi:nodetypes="cssscscccsssscsssscssssscsssssssssscsssscssssssssssssssssccscccsccsccccscccscssssccscscssscscccssssssccscc"
         id="path3858"
         d="m 621.29862,402.35372 c -1.33797,-0.19398 -2.757,0.11279 -3.88983,0.88273 -1.15226,0.78322 -2.00045,2.0713 -2.2045,3.47827 -0.20405,1.40698 0.27449,2.87947 1.13071,3.9258 0.32228,0.39386 0.72991,0.69939 1.15718,0.99977 -0.68916,0.12792 -1.35108,0.39471 -1.92544,0.80589 -0.008,0.006 -0.0272,-0.011 -0.0353,-0.005 l 0.0302,0.0404 c -0.69664,0.49965 -1.18297,1.23778 -1.52816,2.05717 -0.0415,-1.6606 -0.82538,-3.35335 -2.25921,-4.12564 -0.007,-0.003 0.0117,-0.0319 0.005,-0.0353 -0.01,-0.004 -0.026,-7.3e-4 -0.0353,-0.005 -1.06353,-0.55628 -2.20001,-0.75309 -3.87066,-0.9954 -0.0102,-10e-4 -0.0254,-0.004 -0.0353,-0.005 0.19845,-1.6812 0.1945,-3.18616 -0.35485,-4.5367 -0.61031,-1.50042 -2.13482,-2.66072 -3.74005,-2.89355 -1.26191,-0.18297 -2.59049,0.1186 -3.62644,0.81242 -1.05879,0.70916 -1.83629,1.937 -2.0217,3.21541 -0.0716,0.49381 -0.15433,1.21468 -0.22713,2.06499 -0.38265,-0.0793 -1.06294,-0.2626 -1.33079,-0.30145 -1.28711,-0.18663 -2.69136,0.0927 -3.74814,0.90327 -1.02305,0.78482 -1.66675,2.01494 -1.84454,3.24111 -0.16974,1.17021 -3.2e-4,2.4531 0.72667,3.46932 0.727,1.01623 1.85585,1.61765 3.01314,1.92001 0.92562,0.23317 1.41338,0.33015 2.09989,0.4854 -0.40764,4.04026 -0.7732,7.5761 -0.96047,8.86736 -0.0604,0.41619 -0.19891,1.16396 -0.38426,2.15073 -0.18629,0.9926 -0.32598,1.74889 -0.40995,2.32785 -0.18951,1.30676 0.30324,2.70498 1.13638,3.63725 0.0109,0.012 0.0194,0.0284 0.0302,0.0404 0.80326,0.89292 1.94873,1.47627 3.1251,1.64687 1.54072,0.22345 3.29518,-0.34501 4.31142,-1.545 1.01624,-1.19999 1.44456,-2.72778 1.70554,-4.52726 0.035,-0.24136 0.12005,-0.71626 0.18496,-1.27535 0.0623,-0.53458 0.0961,-0.91142 0.0983,-0.92621 0.21395,-1.47529 0.61251,-5.06707 1.03185,-9.1102 0.21754,0.0336 0.4456,0.0818 0.7034,0.13808 0.0235,0.004 0.0472,0.007 0.0709,0.0103 0.36528,0.066 0.7009,0.13782 1.09309,0.1946 1.25126,0.18149 2.64306,-0.0677 3.70243,-0.83756 0.43985,-0.31962 0.77387,-0.76516 1.08089,-1.21775 -0.15218,0.89048 -0.26908,1.7007 -0.51724,2.81869 -0.41311,1.8602 -0.7106,3.40338 -0.90101,4.71629 -0.12166,0.83886 -0.27292,2.0888 -0.48402,3.8363 -0.002,0.0118 -0.004,0.0235 -0.005,0.0353 -0.19506,1.7296 -0.35835,2.96975 -0.46861,3.73003 -0.18497,1.27531 0.10401,2.66412 0.90842,3.7127 0.0118,0.002 0.0235,0.004 0.0353,0.005 0.81701,1.03619 2.0663,1.63802 3.28168,1.81428 1.21537,0.17626 2.58416,-0.0459 3.66186,-0.80728 0.0118,0.002 0.0235,0.004 0.0353,0.005 1.10607,-0.80373 1.71411,-2.09237 1.89027,-3.30681 0.11709,-0.80743 0.28688,-2.09309 0.48401,-3.83631 0.002,-0.0165 0.003,-0.0189 0.005,-0.0353 0.20807,-1.72111 0.36286,-3.00091 0.4686,-3.73003 0.16626,-1.14643 0.45955,-2.63013 0.85991,-4.43287 0.41355,-1.86211 0.71574,-3.43883 0.90615,-4.75171 0.1835,-1.26538 -0.19244,-2.62469 -0.95925,-3.61157 l 0.0405,-0.0302 c -0.006,-0.008 -0.0291,0.003 -0.0353,-0.005 -0.28293,-0.36346 -0.65135,-0.64458 -1.02575,-0.90836 0.79762,-0.142 1.54596,-0.4025 2.1837,-0.84078 l 0.005,-0.0353 c 1.13684,-0.78317 1.96433,-2.07188 2.15879,-3.41256 0.19441,-1.34067 -0.20265,-2.81546 -1.09528,-3.92067 l 0.0404,-0.0302 c -0.006,-0.008 -0.029,0.003 -0.0353,-0.005 -0.84667,-1.04449 -2.11545,-1.75358 -3.44339,-1.94623 l -6e-5,-10e-6 z m 8.68168,9.72316 c -1.63068,-0.23646 -3.39743,0.48465 -4.48395,1.73702 -0.69648,0.81999 -0.99502,1.5906 -1.29614,2.45253 -0.30111,0.86193 -0.50524,1.73791 -0.6179,2.51472 l 0.13955,1.03309 c -0.24839,-1.48433 -0.18525,1.86959 -0.20205,2.14098 -0.15793,2.14114 -0.39985,4.71374 -0.78578,7.66287 -0.2759,2.09473 -0.67059,4.81762 -1.18168,8.14803 -0.67974,4.4919 -1.08343,6.97169 -1.19088,7.71263 -0.18495,1.27528 0.1377,2.6659 0.91354,3.67728 0.76849,1.00181 1.99679,1.70024 3.30682,1.89026 1.31005,0.18996 2.68614,-0.13078 3.70757,-0.87299 1.03117,-0.74932 1.73558,-1.99099 1.92055,-3.26626 l 0.92929,-6.15903 c 0.54267,0.12418 1.10906,0.3417 1.63935,0.4186 3.57219,0.51807 6.95917,-0.3357 9.5634,-2.59189 2.40857,-2.07819 3.90922,-5.00714 4.40708,-8.43986 0.50427,-3.47725 0.32671,-6.55917 -0.62343,-9.16941 -1.2907,-3.49356 -4.2504,-5.82507 -8.01045,-6.37039 -1.11429,-0.16158 -2.27655,-0.17348 -3.43228,-0.0276 -0.0119,0.001 -0.0235,-0.006 -0.0353,-0.005 -0.35817,0.0436 -0.70023,0.2061 -1.05359,0.28126 -0.13716,-0.30193 -0.21766,-0.62997 -0.41322,-0.89188 -0.76214,-1.02065 -1.97445,-1.69699 -3.20054,-1.87484 l 10e-6,-5e-5 z m 6.7376,12.15406 c 0.23741,0.0344 0.15157,0.0352 0.20228,0.10169 0.0507,0.0665 0.20616,0.32741 0.26124,0.94217 0.0293,0.3529 -0.019,1.62707 -0.28066,3.43174 -0.18104,1.24822 -0.54171,1.94776 -0.95675,2.35706 -0.0118,-0.002 -0.0235,-0.004 -0.0353,-0.005 -0.45415,0.45025 -0.80698,0.60639 -1.73236,0.47219 -0.54941,-0.0797 -1.08396,-0.34509 -1.62393,-0.52488 0.25769,-1.93361 0.47795,-3.86208 0.66032,-5.80017 0.56153,-0.30132 1.13545,-0.63575 1.63176,-0.77614 0.72948,-0.21641 1.35584,-0.27358 1.87352,-0.19852 l -5e-5,-1e-5 z"
         style="font-size:37.44176483px;font-style:normal;font-variant:normal;font-weight:bold;font-stretch:normal;text-align:start;line-height:125%;writing-mode:lr-tb;text-anchor:start;fill:#a7c2da;fill-opacity:1;stroke:none;font-family:Comic Sans MS;-inkscape-font-specification:Comic Sans MS Bold"
         inkscape:connector-curvature="0" />
      <path
         sodipodi:nodetypes="cccsssscssssssccsscscccsccssssccssssssscccssssscssssssssccsscssssssssccssscssssccssssc"
         id="path3855"
         d="m 633.08979,439.12197 c -1.18825,-0.17233 -2.41864,-0.49184 -3.69116,-0.95854 l -1.24711,8.45292 c -0.11623,0.80136 -0.48184,1.4255 -1.09684,1.8724 -0.615,0.44688 -1.33701,0.61021 -2.16602,0.48999 -0.82902,-0.12024 -1.47489,-0.48195 -1.9376,-1.08512 -0.46271,-0.6032 -0.63595,-1.30549 -0.51973,-2.10685 0.0942,-0.64941 0.48175,-3.22424 1.1626,-7.72454 0.51263,-3.33966 0.90838,-6.06848 1.18726,-8.18648 0.39135,-2.99045 0.66737,-5.57442 0.82797,-7.7519 0.22357,-3.00067 0.0546,-3.27794 0.0186,-3.02925 0.16631,-1.1468 0.82689,-3.18942 1.45634,-3.9305 0.72837,-0.83954 1.59688,-1.18618 2.60551,-1.03993 0.77374,0.11224 1.38506,0.46893 1.83396,1.0701 0.44889,0.6012 0.62024,1.26794 0.51404,2.00022 l -0.0508,0.20424 c 1.00185,-0.39078 1.9837,-0.64339 2.9455,-0.75785 0.97761,-0.12624 1.93619,-0.12125 2.87575,0.015 3.17786,0.4609 5.30373,2.14469 6.3776,5.05136 0.79694,2.18939 0.96099,4.90065 0.49212,8.1338 -0.43886,3.02589 -1.66612,5.40841 -3.68175,7.14756 -2.16206,1.8731 -4.79749,2.58422 -7.90627,2.13337 m 3.91578,-16.93244 c -0.87048,-0.12622 -1.78482,-0.0472 -2.74301,0.23704 -0.95622,0.27045 -1.94939,0.74714 -2.97952,1.43007 -0.24699,2.87033 -0.57788,5.73554 -0.99266,8.59563 1.17159,0.57901 2.37223,0.95771 3.60193,1.13605 1.42312,0.20639 2.5878,-0.13962 3.49402,-1.03805 0.82309,-0.81171 1.34684,-1.99132 1.57128,-3.53881 0.2705,-1.86527 0.37504,-3.16917 0.31338,-3.91171 -0.15624,-1.74375 -0.91138,-2.71383 -2.26542,-2.91022 m -16.91307,-11.63681 c -0.88428,-0.12821 -1.60803,-0.53649 -2.17125,-1.22482 -0.56324,-0.68828 -0.78273,-1.46075 -0.65849,-2.31742 0.12423,-0.85662 0.55412,-1.53491 1.28969,-2.0349 0.73554,-0.49991 1.54546,-0.68576 2.42975,-0.55755 0.88426,0.12827 1.60112,0.53555 2.15054,1.22182 0.56322,0.68834 0.78271,1.46081 0.65849,2.31743 -0.12425,0.85667 -0.55414,1.53496 -1.28969,2.03489 -0.72175,0.50197 -1.52477,0.68883 -2.40904,0.56055 m -0.44154,15.44715 c -0.11422,0.78756 -0.27678,2.05482 -0.4879,3.80174 -0.19725,1.74893 -0.35299,3.01718 -0.46721,3.80474 -0.11623,0.80137 -0.48185,1.42551 -1.09683,1.8724 -0.61302,0.43307 -1.33401,0.5895 -2.16302,0.46927 -0.82902,-0.12023 -1.47588,-0.47503 -1.94059,-1.0644 -0.46272,-0.60319 -0.63597,-1.30547 -0.51974,-2.10685 0.11421,-0.78756 0.26986,-2.05582 0.46722,-3.80474 0.21101,-1.74693 0.37367,-3.01418 0.48789,-3.80174 0.17834,-1.22969 0.47084,-2.76026 0.87753,-4.5917 0.40667,-1.83139 0.69919,-3.36196 0.87753,-4.59168 0.11622,-0.80136 0.48083,-1.41859 1.09384,-1.85168 0.61499,-0.44687 1.337,-0.6102 2.16601,-0.49 0.829,0.12025 1.47486,0.48196 1.93759,1.08513 0.4647,0.58939 0.63895,1.28477 0.52275,2.08613 -0.17836,1.22972 -0.47085,2.76029 -0.87754,4.59168 -0.40668,1.83144 -0.69919,3.362 -0.87753,4.5917 m -10.82422,-8.67997 c -0.29018,-0.0421 -0.63459,-0.0991 -1.03326,-0.17107 -0.38286,-0.0838 -0.71939,-0.14657 -1.00952,-0.18875 -0.56651,-0.0822 -1.23083,-0.12202 -1.99295,-0.11974 -0.56085,5.61809 -0.9655,9.28379 -1.21396,10.99706 -0.0261,0.17962 -0.0682,0.51915 -0.1265,1.01856 -0.0563,0.4856 -0.10646,0.88039 -0.15054,1.18436 -0.46089,3.17787 -1.69305,4.62153 -3.69648,4.33098 -0.75995,-0.11021 -1.38218,-0.44027 -1.86673,-0.9902 -0.5358,-0.58558 -0.7496,-1.25141 -0.64139,-1.99753 0.0721,-0.49741 0.20112,-1.24051 0.38677,-2.22932 0.18574,-0.9888 0.31462,-1.7319 0.38676,-2.22932 0.24246,-1.67183 0.6371,-5.26843 1.18392,-10.78981 -0.85064,-0.1657 -2.1334,-0.46455 -3.84827,-0.89667 -1.69906,-0.4439 -2.43237,-1.46724 -2.19991,-3.07001 0.1122,-0.77372 0.46991,-1.39196 1.0731,-1.85469 0.60318,-0.46269 1.31929,-0.63393 2.1483,-0.51372 0.51122,0.0742 1.67363,0.3274 3.48723,0.75967 0.0503,-0.44413 0.12193,-1.18142 0.21499,-2.2119 0.0729,-0.89228 0.14459,-1.5802 0.21473,-2.06382 0.11221,-0.77373 0.48863,-1.37513 1.12928,-1.80423 0.64061,-0.42904 1.36161,-0.58546 2.16301,-0.46925 2.04488,0.29658 2.81785,2.16506 2.31892,5.60543 l -0.28794,1.69347 c 0.87466,-1.1e-4 1.58142,0.0389 2.1203,0.11705 1.58892,0.23045 2.65853,0.49135 3.20879,0.78277 1.04922,0.5472 1.47966,1.47017 1.29132,2.76895 -0.11423,0.78757 -0.47884,1.40481 -1.09382,1.85168 -0.61502,0.44691 -1.33703,0.61023 -2.16602,0.48999"
         style="font-size:37.44176483px;font-style:normal;font-variant:normal;font-weight:bold;font-stretch:normal;text-align:start;line-height:125%;writing-mode:lr-tb;text-anchor:start;fill:#4d7aa6;fill-opacity:1;stroke:none;font-family:Comic Sans MS;-inkscape-font-specification:Comic Sans MS Bold"
         inkscape:connector-curvature="0" />
    </g>
    <path
       sodipodi:nodetypes="csscsssssc"
       id="path3764"
       d="m 399.3915,205.70325 c 0,19.72515 -5.1606,38.41 -14.38012,55.10366 -1.69316,3.06573 -6.37113,10.30528 -5.48325,13.71297 l 20.00882,76.79292 -73.67388,-31.0221 c -3.87372,-1.63114 -11.37197,1.35944 -15.3635,2.87206 -18.26194,6.92053 -38.4456,10.76151 -59.66866,10.76151 -82.04777,0 -148.56065,-57.4065 -148.56065,-128.22102 0,-70.81451 66.51288,-128.221045 148.56065,-128.221045 82.04772,0 148.56059,57.406535 148.56059,128.221045 z"
       style="color:#000000;fill:#a6c2da;fill-opacity:1;stroke:#123569;stroke-width:9.76576424;stroke-linecap:round;stroke-linejoin:miter;stroke-miterlimit:4;stroke-opacity:1;stroke-dashoffset:0;marker:none;visibility:visible;display:inline;overflow:visible;enable-background:accumulate"
       inkscape:connector-curvature="0" />
    <path
       sodipodi:type="inkscape:offset"
       inkscape:radius="-1.2258576"
       inkscape:original="M 761.875 457.03125 C 755.52867 462.22658 750.62063 469.07611 748.3125 477.09375 C 743.84692 492.51177 751.18978 509.90993 764.5 518.53125 C 777.64066 527.31526 798.15218 531.26502 813.84375 525.125 C 775.92651 521.21159 761.04444 491.30554 761.875 457.03125 z "
       style="color:#000000;fill:#ffffff;fill-opacity:0.43893127;stroke:none;stroke-width:3.32299995;marker:none;visibility:visible;display:inline;overflow:visible;enable-background:accumulate"
       id="path3797"
       d="m 760.75,459.75 c -5.21324,4.80827 -9.26219,10.78254 -11.25,17.6875 -4.29713,14.83641 2.80497,31.73845 15.65625,40.0625 a 1.2259802,1.2259802 0 0 1 0.0313,0 c 11.40543,7.62408 28.70714,11.45717 43.09375,8 -16.38808,-2.94679 -28.25567,-11.03678 -35.96875,-22.34375 -8.08617,-11.8539 -11.55281,-27.1292 -11.5625,-43.40625 z"
       transform="matrix(2.93884,0,0,2.93884,-2085.31,-1226.96)" />
    <g
       id="g3789"
       transform="matrix(2.99538,0,0,2.99538,-2134.43,-1261.2)">
      <path
         sodipodi:nodetypes="cccsccc"
         id="rect3778"
         d="m 791.39081,460.06876 c 3.67033,-0.45218 6.98916,2.13861 7.44134,5.80893 l 0.38585,23.38393 c 0.0232,4.59101 -1.76077,4.77303 -3.60136,5.10827 -1.51977,0.27681 -3.18642,-0.32904 -4.41293,-4.12093 l -5.62184,-22.73886 c -0.45217,-3.67032 2.13861,-6.98917 5.80894,-7.44134 z"
         style="color:#000000;fill:#4d7aa6;fill-opacity:1;fill-rule:nonzero;stroke:#c1d5e4;stroke-width:2.0035162;stroke-opacity:1;marker:none;visibility:visible;display:inline;overflow:visible;enable-background:accumulate"
         inkscape:connector-curvature="0" />
      <path
         transform="matrix(0.85454,-0.105278,0.105278,0.85454,108.75,133.284)"
         d="m 748.2143,524.14789 c 0,3.74764 -3.03806,6.78571 -6.78571,6.78571 -3.74765,0 -6.78572,-3.03807 -6.78572,-6.78571 0,-3.74765 3.03807,-6.78572 6.78572,-6.78572 3.74765,0 6.78571,3.03807 6.78571,6.78572 z"
         sodipodi:ry="6.7857141"
         sodipodi:rx="6.7857141"
         sodipodi:cy="524.14789"
         sodipodi:cx="741.42859"
         id="path3781"
         style="color:#000000;fill:#4d7aa6;fill-opacity:1;fill-rule:nonzero;stroke:#c1d5e4;stroke-width:2.46128225;stroke-linecap:round;stroke-linejoin:miter;stroke-miterlimit:4;stroke-opacity:1;stroke-dasharray:none;stroke-dashoffset:0;marker:none;visibility:visible;display:inline;overflow:visible;enable-background:accumulate"
         sodipodi:type="arc" />
    </g>
  </g>
</svg>
